<mxfile host="app.diagrams.net" modified="2024-01-18T19:22:48.833Z" agent="Mozilla/5.0 (Windows NT 10.0; Win64; x64) AppleWebKit/537.36 (KHTML, like Gecko) Chrome/120.0.0.0 Safari/537.36" etag="-0qIZQGfkdS5dUNGmCvV" version="22.1.19" type="github">
  <diagram name="Page-1" id="fbcf5db9-b524-4cd4-e4f3-379dc89c3999">
    <mxGraphModel dx="2518" dy="1372" grid="1" gridSize="10" guides="1" tooltips="1" connect="1" arrows="1" fold="1" page="1" pageScale="1" pageWidth="827" pageHeight="1169" background="none" math="0" shadow="1">
      <root>
        <mxCell id="0" />
        <mxCell id="1" parent="0" />
        <mxCell id="2a0f93b5c73ef8e7-1" value="" style="line;strokeWidth=10;direction=south;html=1;fillColor=none;fontSize=13;fontColor=#000000;align=center;strokeColor=#AE4132;movable=1;resizable=1;rotatable=1;deletable=1;editable=1;locked=0;connectable=1;" parent="1" vertex="1">
          <mxGeometry x="247.5" y="150" width="10" height="820" as="geometry" />
        </mxCell>
        <mxCell id="2a0f93b5c73ef8e7-2" value="" style="rounded=1;whiteSpace=wrap;html=1;strokeColor=default;strokeWidth=1;fillColor=#10739E;fontSize=13;fontColor=#FFFFFF;align=center;gradientColor=none;gradientDirection=east;verticalAlign=top;shadow=1;movable=1;resizable=1;rotatable=1;deletable=1;editable=1;locked=0;connectable=1;" parent="1" vertex="1">
          <mxGeometry x="45" y="230" width="220" height="85" as="geometry" />
        </mxCell>
        <mxCell id="2a0f93b5c73ef8e7-3" value="1" style="text;html=1;strokeColor=none;fillColor=none;align=center;verticalAlign=middle;whiteSpace=wrap;fontSize=30;fontColor=#FFFFFF;movable=1;resizable=1;rotatable=1;deletable=1;editable=1;locked=0;connectable=1;" parent="1" vertex="1">
          <mxGeometry x="45" y="240" width="40" height="20" as="geometry" />
        </mxCell>
        <mxCell id="2a0f93b5c73ef8e7-4" value="" style="rounded=1;whiteSpace=wrap;html=1;strokeColor=default;strokeWidth=1;fillColor=#007500;fontSize=13;fontColor=#FFFFFF;align=center;gradientColor=none;gradientDirection=east;verticalAlign=top;shadow=1;movable=1;resizable=1;rotatable=1;deletable=1;editable=1;locked=0;connectable=1;" parent="1" vertex="1">
          <mxGeometry x="45" y="425" width="220" height="85" as="geometry" />
        </mxCell>
        <mxCell id="2a0f93b5c73ef8e7-5" value="2" style="text;html=1;strokeColor=none;fillColor=#007500;align=center;verticalAlign=middle;whiteSpace=wrap;fontSize=30;fontColor=#FFFFFF;movable=1;resizable=1;rotatable=1;deletable=1;editable=1;locked=0;connectable=1;" parent="1" vertex="1">
          <mxGeometry x="45" y="435" width="40" height="20" as="geometry" />
        </mxCell>
        <mxCell id="2a0f93b5c73ef8e7-6" value="" style="rounded=1;whiteSpace=wrap;html=1;strokeColor=default;strokeWidth=1;fillColor=#F2931E;fontSize=13;fontColor=#FFFFFF;align=center;gradientColor=none;gradientDirection=east;verticalAlign=top;shadow=1;movable=1;resizable=1;rotatable=1;deletable=1;editable=1;locked=0;connectable=1;" parent="1" vertex="1">
          <mxGeometry x="40" y="650" width="220" height="85" as="geometry" />
        </mxCell>
        <mxCell id="2a0f93b5c73ef8e7-7" value="3" style="text;html=1;strokeColor=none;fillColor=none;align=center;verticalAlign=middle;whiteSpace=wrap;fontSize=30;fontColor=#FFFFFF;movable=1;resizable=1;rotatable=1;deletable=1;editable=1;locked=0;connectable=1;" parent="1" vertex="1">
          <mxGeometry x="40" y="660" width="40" height="20" as="geometry" />
        </mxCell>
        <UserObject label="&lt;h1&gt;Oportunidade&lt;/h1&gt;" link="https://labdx.org/entendo-o-e-commerce-social" linkTarget="_blank" id="2a0f93b5c73ef8e7-18">
          <mxCell style="text;html=1;spacing=5;spacingTop=-20;whiteSpace=wrap;overflow=hidden;strokeColor=none;strokeWidth=4;fillColor=none;gradientColor=#007FFF;fontSize=9;fontColor=#FFFFFF;align=center;movable=1;resizable=1;rotatable=1;deletable=1;editable=1;locked=0;connectable=1;" parent="1" vertex="1">
            <mxGeometry x="57.5" y="242.5" width="202.5" height="67.5" as="geometry" />
          </mxCell>
        </UserObject>
        <mxCell id="2a0f93b5c73ef8e7-19" value="&lt;h1&gt;Estratégia&lt;/h1&gt;" style="text;html=1;spacing=5;spacingTop=-20;whiteSpace=wrap;overflow=hidden;strokeColor=none;strokeWidth=4;fillColor=none;gradientColor=none;fontSize=9;fontColor=#FFFFFF;align=center;movable=1;resizable=1;rotatable=1;deletable=1;editable=1;locked=0;connectable=1;" parent="1" vertex="1">
          <mxGeometry x="87.5" y="455" width="160" height="50" as="geometry" />
        </mxCell>
        <mxCell id="2a0f93b5c73ef8e7-20" value="&lt;h1&gt;Ação&lt;/h1&gt;" style="text;html=1;spacing=5;spacingTop=-20;whiteSpace=wrap;overflow=hidden;strokeColor=none;strokeWidth=4;fillColor=none;gradientColor=#007FFF;fontSize=9;fontColor=#FFFFFF;align=center;movable=1;resizable=1;rotatable=1;deletable=1;editable=1;locked=0;connectable=1;" parent="1" vertex="1">
          <mxGeometry x="72.5" y="674" width="160" height="77" as="geometry" />
        </mxCell>
        <mxCell id="yTiDIMMULaR009IDPwPM-1" value="" style="image;html=1;image=img/lib/clip_art/finance/Credit_Card_128x128.png;movable=1;resizable=1;rotatable=1;deletable=1;editable=1;locked=0;connectable=1;" vertex="1" parent="1">
          <mxGeometry x="190" y="970" width="115" height="110" as="geometry" />
        </mxCell>
        <mxCell id="yTiDIMMULaR009IDPwPM-2" value="" style="image;html=1;image=img/lib/clip_art/finance/Shopping_Cart_128x128.png;movable=1;resizable=1;rotatable=1;deletable=1;editable=1;locked=0;connectable=1;" vertex="1" parent="1">
          <mxGeometry x="200" y="70" width="125" height="100" as="geometry" />
        </mxCell>
        <mxCell id="yTiDIMMULaR009IDPwPM-9" value="&lt;h1&gt;Planejamento estratégico para e-commerce social&lt;/h1&gt;&lt;p&gt;Clique nos objetos para acessar os conteúdos.&lt;/p&gt;" style="text;html=1;strokeColor=none;fillColor=none;spacing=5;spacingTop=-20;whiteSpace=wrap;overflow=hidden;rounded=0;" vertex="1" parent="1">
          <mxGeometry x="425" y="30" width="310" height="120" as="geometry" />
        </mxCell>
        <mxCell id="yTiDIMMULaR009IDPwPM-11" value="" style="image;html=1;image=img/lib/clip_art/general/Battery_50_128x128.png;movable=1;resizable=1;rotatable=1;deletable=1;editable=1;locked=0;connectable=1;" vertex="1" parent="1">
          <mxGeometry x="45" y="270" width="40" height="35" as="geometry" />
        </mxCell>
        <mxCell id="yTiDIMMULaR009IDPwPM-23" value="1.1&lt;br&gt;Análise de desempenho" style="rounded=1;whiteSpace=wrap;html=1;strokeColor=none;strokeWidth=1;fillColor=#10739E;fontSize=13;fontColor=#FFFFFF;align=center;gradientColor=none;gradientDirection=east;verticalAlign=top;shadow=1;movable=1;resizable=1;rotatable=1;deletable=1;editable=1;locked=0;connectable=1;" vertex="1" parent="1">
          <mxGeometry x="270" y="230" width="130" height="85" as="geometry" />
        </mxCell>
        <mxCell id="yTiDIMMULaR009IDPwPM-27" value="&lt;div&gt;1.2&amp;nbsp;&lt;/div&gt;&lt;div&gt;Revisão do mercado&lt;/div&gt;&lt;div&gt;&lt;br&gt;&lt;/div&gt;" style="rounded=1;whiteSpace=wrap;html=1;strokeColor=default;strokeWidth=1;fillColor=#10739E;fontSize=13;fontColor=#FFFFFF;align=center;gradientColor=none;gradientDirection=east;verticalAlign=top;shadow=1;movable=1;resizable=1;rotatable=1;deletable=1;editable=1;locked=0;connectable=1;" vertex="1" parent="1">
          <mxGeometry x="377.5" y="285" width="120" height="85" as="geometry" />
        </mxCell>
        <mxCell id="yTiDIMMULaR009IDPwPM-29" value="1.3&lt;br&gt;&amp;nbsp;Revisão do PESTLE" style="rounded=1;whiteSpace=wrap;html=1;strokeColor=default;strokeWidth=1;fillColor=#10739E;fontSize=13;fontColor=#FFFFFF;align=center;gradientColor=none;gradientDirection=east;verticalAlign=top;shadow=1;movable=1;resizable=1;rotatable=1;deletable=1;editable=1;locked=0;connectable=1;" vertex="1" parent="1">
          <mxGeometry x="477.5" y="345" width="100" height="85" as="geometry" />
        </mxCell>
        <mxCell id="yTiDIMMULaR009IDPwPM-30" value="" style="image;html=1;image=img/lib/clip_art/general/Battery_50_128x128.png;movable=1;resizable=1;rotatable=1;deletable=1;editable=1;locked=0;connectable=1;strokeColor=default;" vertex="1" parent="1">
          <mxGeometry x="377.5" y="340" width="20" height="20" as="geometry" />
        </mxCell>
        <mxCell id="yTiDIMMULaR009IDPwPM-37" value="2.1&lt;br&gt;Proposta de valor de marca.&amp;nbsp;" style="rounded=1;whiteSpace=wrap;html=1;strokeColor=default;strokeWidth=1;fillColor=#006633;fontSize=13;fontColor=#FFFFFF;align=center;gradientColor=none;gradientDirection=east;verticalAlign=top;shadow=1;movable=1;resizable=1;rotatable=1;deletable=1;editable=1;locked=0;connectable=1;" vertex="1" parent="1">
          <mxGeometry x="270" y="425" width="107.5" height="85" as="geometry" />
        </mxCell>
        <mxCell id="yTiDIMMULaR009IDPwPM-43" value="1.4&lt;br&gt;&amp;nbsp;Principal questões &lt;br&gt;SWOT" style="rounded=1;whiteSpace=wrap;html=1;strokeColor=default;strokeWidth=1;fillColor=#10739E;fontSize=13;fontColor=#FFFFFF;align=center;gradientColor=none;gradientDirection=east;verticalAlign=top;shadow=1;movable=1;resizable=1;rotatable=1;deletable=1;editable=1;locked=0;connectable=1;" vertex="1" parent="1">
          <mxGeometry x="560" y="410" width="100" height="85" as="geometry" />
        </mxCell>
        <mxCell id="yTiDIMMULaR009IDPwPM-44" value="" style="image;html=1;image=img/lib/clip_art/general/Battery_50_128x128.png;movable=1;resizable=1;rotatable=1;deletable=1;editable=1;locked=0;connectable=1;strokeColor=default;" vertex="1" parent="1">
          <mxGeometry x="477.5" y="380" width="20" height="20" as="geometry" />
        </mxCell>
        <mxCell id="yTiDIMMULaR009IDPwPM-45" value="" style="image;html=1;image=img/lib/clip_art/general/Battery_50_128x128.png;movable=1;resizable=1;rotatable=1;deletable=1;editable=1;locked=0;connectable=1;strokeColor=default;" vertex="1" parent="1">
          <mxGeometry x="547.5" y="430" width="20" height="20" as="geometry" />
        </mxCell>
        <mxCell id="yTiDIMMULaR009IDPwPM-46" value="" style="image;html=1;image=img/lib/clip_art/general/Battery_50_128x128.png;movable=1;resizable=1;rotatable=1;deletable=1;editable=1;locked=0;connectable=1;strokeColor=default;" vertex="1" parent="1">
          <mxGeometry x="287.5" y="285" width="20" height="20" as="geometry" />
        </mxCell>
        <mxCell id="yTiDIMMULaR009IDPwPM-50" value="2.2&lt;br&gt;&amp;nbsp;Segmentação e segmentação de clientes" style="rounded=1;whiteSpace=wrap;html=1;strokeColor=default;strokeWidth=1;fillColor=#006633;fontSize=13;fontColor=#FFFFFF;align=center;gradientColor=none;gradientDirection=east;verticalAlign=top;shadow=1;movable=1;resizable=1;rotatable=1;deletable=1;editable=1;locked=0;connectable=1;glass=0;" vertex="1" parent="1">
          <mxGeometry x="360" y="490" width="107.5" height="85" as="geometry" />
        </mxCell>
        <mxCell id="yTiDIMMULaR009IDPwPM-51" value="2.3&lt;br&gt;&amp;nbsp;Mix de Marketing Moderno" style="rounded=1;whiteSpace=wrap;html=1;strokeColor=default;strokeWidth=1;fillColor=#006633;fontSize=13;fontColor=#FFFFFF;align=center;gradientColor=none;gradientDirection=east;verticalAlign=top;shadow=1;movable=1;resizable=1;rotatable=1;deletable=1;editable=1;locked=0;connectable=1;" vertex="1" parent="1">
          <mxGeometry x="452.5" y="555" width="107.5" height="85" as="geometry" />
        </mxCell>
        <mxCell id="yTiDIMMULaR009IDPwPM-52" value="2.4&lt;br&gt;&amp;nbsp;Estratégia de comunicação RACE" style="rounded=1;whiteSpace=wrap;html=1;strokeColor=default;strokeWidth=1;fillColor=#006633;fontSize=13;fontColor=#FFFFFF;align=center;gradientColor=none;gradientDirection=east;verticalAlign=top;shadow=1;movable=1;resizable=1;rotatable=1;deletable=1;editable=1;locked=0;connectable=1;" vertex="1" parent="1">
          <mxGeometry x="540" y="620" width="107.5" height="85" as="geometry" />
        </mxCell>
        <mxCell id="yTiDIMMULaR009IDPwPM-53" value="2.5&lt;br&gt;&amp;nbsp;Resumo do Business Model Canvas" style="rounded=1;whiteSpace=wrap;html=1;strokeColor=default;strokeWidth=1;fillColor=#006633;fontSize=13;fontColor=#FFFFFF;align=center;gradientColor=none;gradientDirection=east;verticalAlign=top;shadow=1;movable=1;resizable=1;rotatable=1;deletable=1;editable=1;locked=0;connectable=1;" vertex="1" parent="1">
          <mxGeometry x="627.5" y="690" width="107.5" height="85" as="geometry" />
        </mxCell>
        <mxCell id="yTiDIMMULaR009IDPwPM-54" value="3.1&lt;br&gt;&amp;nbsp;Orçamento de marketing e plano de recursos" style="rounded=1;whiteSpace=wrap;html=1;strokeColor=default;strokeWidth=1;fillColor=#F2931E;fontSize=13;fontColor=#FFFFFF;align=center;gradientColor=none;gradientDirection=east;verticalAlign=top;shadow=1;movable=1;resizable=1;rotatable=1;deletable=1;editable=1;locked=0;connectable=1;" vertex="1" parent="1">
          <mxGeometry x="265" y="650" width="107.5" height="80" as="geometry" />
        </mxCell>
        <mxCell id="yTiDIMMULaR009IDPwPM-55" value="3.2&lt;br&gt;Painel de marketing" style="rounded=1;whiteSpace=wrap;html=1;strokeColor=default;strokeWidth=1;fillColor=#F2931E;fontSize=13;fontColor=#FFFFFF;align=center;gradientColor=none;gradientDirection=east;verticalAlign=top;shadow=1;movable=1;resizable=1;rotatable=1;deletable=1;editable=1;locked=0;connectable=1;" vertex="1" parent="1">
          <mxGeometry x="360" y="710" width="107.5" height="80" as="geometry" />
        </mxCell>
        <mxCell id="yTiDIMMULaR009IDPwPM-56" value="3.3&lt;br&gt;&amp;nbsp;Plano Always-on e MarTech" style="rounded=1;whiteSpace=wrap;html=1;strokeColor=default;strokeWidth=1;fillColor=#F2931E;fontSize=13;fontColor=#FFFFFF;align=center;gradientColor=none;gradientDirection=east;verticalAlign=top;shadow=1;movable=1;resizable=1;rotatable=1;deletable=1;editable=1;locked=0;connectable=1;" vertex="1" parent="1">
          <mxGeometry x="460" y="760" width="107.5" height="80" as="geometry" />
        </mxCell>
        <mxCell id="yTiDIMMULaR009IDPwPM-57" value="3.4&lt;br&gt;&amp;nbsp;Resumo do plano de ação de 90 dias" style="rounded=1;whiteSpace=wrap;html=1;strokeColor=default;strokeWidth=1;fillColor=#F2931E;fontSize=13;fontColor=#FFFFFF;align=center;gradientColor=none;gradientDirection=east;verticalAlign=top;shadow=1;movable=1;resizable=1;rotatable=1;deletable=1;editable=1;locked=0;connectable=1;" vertex="1" parent="1">
          <mxGeometry x="547.5" y="820" width="107.5" height="80" as="geometry" />
        </mxCell>
      </root>
    </mxGraphModel>
  </diagram>
</mxfile>
